HIERARCHY
ROOT Hips
{
  OFFSET 0 0 0
  CHANNELS 6 Xposition Yposition Zposition Zrotation Yrotation Xrotation
  JOINT LeftThigh
  {
    OFFSET 8.409438 0 -5.917753
    CHANNELS 3 Zrotation Yrotation Xrotation
    JOINT LeftLeg
    {
      OFFSET 0 0 -42.358652
      CHANNELS 3 Zrotation Yrotation Xrotation
      JOINT LeftFoot
      {
        OFFSET 0 0 -39.357303
        CHANNELS 3 Zrotation Yrotation Xrotation
      }
    }
  }
  JOINT RightThigh
  {
    OFFSET -8.409438 0 -5.917753
    CHANNELS 3 Zrotation Yrotation Xrotation
    JOINT RightLeg
    {
      OFFSET 0 0 -42.358652
      CHANNELS 3 Zrotation Yrotation Xrotation
      JOINT RightFoot
      {
        OFFSET 0 0 -39.357303
        CHANNELS 3 Zrotation Yrotation Xrotation
      }
    }
  }
  JOINT SpineLow
  {
    OFFSET 0 0 4.719101
    CHANNELS 3 Zrotation Yrotation Xrotation
    JOINT SpineMid
    {
      OFFSET 0 0 12.899191
      CHANNELS 3 Zrotation Yrotation Xrotation
      JOINT Chest
      {
        OFFSET 0 0 12.899191
        CHANNELS 3 Zrotation Yrotation Xrotation
        JOINT LeftShoulder
        {
          OFFSET 7.550562 1.41573 9.438202
          CHANNELS 3 Zrotation Yrotation Xrotation
          JOINT LeftArm
          {
            OFFSET 9.155056 0 4.247191
            CHANNELS 3 Zrotation Yrotation Xrotation
            JOINT LeftForearm
            {
              OFFSET 0 0 25.771955
              CHANNELS 3 Zrotation Yrotation Xrotation
              JOINT LeftHand
              {
                OFFSET 0 0 25.197169
                CHANNELS 3 Zrotation Yrotation Xrotation
              }
            }
          }
        }
        JOINT RightShoulder
        {
          OFFSET -7.550562 1.41573 9.438202
          CHANNELS 3 Zrotation Yrotation Xrotation
          JOINT RightArm
          {
            OFFSET -9.155056 0 4.247191
            CHANNELS 3 Zrotation Yrotation Xrotation
            JOINT RightForearm
            {
              OFFSET 0 0 -25.771955
              CHANNELS 3 Zrotation Yrotation Xrotation
              JOINT RightHand
              {
                OFFSET 0 0 -25.197169
                CHANNELS 3 Zrotation Yrotation Xrotation
              }
            }
          }
        }
        JOINT Neck
        {
          OFFSET 0 0 15.101124
          CHANNELS 3 Zrotation Yrotation Xrotation
          JOINT Head
          {
            OFFSET 0 0 11.325843
            CHANNELS 3 Zrotation Yrotation Xrotation
            End Site
            {
              OFFSET 0 0 14.157303
            }
          }
        }
      }
    }
  }
}
MOTION
Frames: 10
Frame Time: 0.0
0.0  101.685394  0.0  -1.019475  -2.792939  -100.899246  9.799202  -22.677871  4.693032  2.586329  12.687584  30.29084  4.316362  4.56942  3.397131  -11.185862  11.154972  -3.335178  5.794662  2.393657  24.033075  -0.846143  1.724258  -1.06291  -4.347217  0.831809  3.059348  -11.762033  2.809457  8.186559  -11.762034  2.809457  8.186559  -22.372843  29.57367  7.94005  162.304501  62.210295  175.198905  -4.820814  3.614608  10.025187  76.641639  -1.094852  -10.449169  7.0373  -8.019176  12.465205  56.855142  12.172526  32.043397  -6.934317  -33.417071  -100.22796  64.530145  9.447636  6.10075  18.469276  -1.049669  0.647679  13.852698  -0.768503  0.518049  
0.0  101.685394  0.0  -1.070799  -2.223772  -100.734025  8.944236  -22.520332  4.579424  2.986101  12.597866  30.506879  4.368229  4.549645  3.400142  -12.222715  11.223268  -3.562387  5.941532  2.404145  23.947705  -0.652705  1.74935  -1.055371  -4.380536  0.808383  3.018705  -11.857587  2.742601  8.078242  -11.857587  2.742601  8.078242  -22.317069  29.606415  7.956397  161.52833  62.405835  174.727249  -4.886518  3.505813  9.906675  76.70352  -1.169115  -10.3427  7.154395  -8.029908  12.648964  56.533455  12.502427  32.06745  -6.571784  -33.262121  -100.188699  65.088761  8.568146  6.339516  18.329117  -1.072441  0.616814  13.747533  -0.786664  0.495309  
0.0  101.685394  0.0  -1.073618  -1.701897  -100.528929  8.175367  -22.329198  4.371471  3.225171  12.56236  30.60831  4.425236  4.551892  3.430805  -12.891833  11.290009  -3.706869  5.943609  2.460652  23.849465  -0.546658  1.740527  -1.06746  -4.407828  0.782097  2.991278  -11.936324  2.669508  8.006794  -11.936323  2.669508  8.006794  -22.342158  29.471678  7.860993  160.68282  62.345949  174.214673  -5.047711  3.269143  9.839552  76.754757  -1.219476  -10.169967  7.148672  -8.018663  12.586635  56.122458  12.849203  32.176064  -6.115874  -33.431189  -100.344564  65.158556  8.446408  6.463887  18.206372  -0.98489  0.520065  13.655291  -0.72393  0.419839  
0.0  101.685394  0.0  -0.955116  -1.437304  -100.444221  7.821523  -22.139525  4.31968  3.501388  12.507706  30.749544  4.387492  4.532217  3.412875  -13.42756  11.474142  -3.873358  5.748843  2.52266  23.766225  -0.207478  1.80016  -1.031573  -4.349595  0.790721  2.989228  -11.776454  2.68566  8.0024  -11.776454  2.68566  8.0024  -22.615662  29.136734  7.815431  160.536001  62.094902  174.249477  -4.927685  2.863157  9.888278  76.872146  -1.112776  -9.98737  6.910354  -8.155021  12.427632  55.799498  13.115848  32.34919  -5.745852  -33.510387  -100.533716  65.235681  8.270764  6.710569  17.958887  -0.973551  0.393478  13.469474  -0.719333  0.324059  
0.0  101.685394  0.0  -0.916979  -1.397857  -100.415168  7.769722  -22.116512  4.297546  3.584233  12.514498  30.751639  4.333767  4.529012  3.409839  -13.32985  11.508832  -3.810185  5.606056  2.548935  23.732623  -0.18543  1.823585  -1.036038  -4.300768  0.777756  2.990864  -11.64451  2.644874  8.011306  -11.64451  2.644874  8.011306  -22.594008  28.954746  7.716641  159.740858  62.018893  173.808552  -5.089749  2.624116  9.82871  76.899738  -1.144932  -9.770627  6.883778  -8.135779  12.300244  55.691737  13.305421  32.471464  -5.606664  -33.509193  -100.561801  65.369799  8.029262  6.927494  17.869269  -0.867917  0.310073  13.402139  -0.64252  0.258204  
0.0  101.685394  0.0  -0.837206  -1.580001  -100.456446  8.131781  -22.170091  4.39435  3.65637  12.508359  30.751078  4.072356  4.49284  3.314192  -13.014865  11.571394  -3.738318  5.362014  2.566968  23.733005  -0.104919  1.881145  -1.01943  -4.219464  0.783955  3.002896  -11.421281  2.654096  8.046754  -11.421281  2.654096  8.046753  -22.680173  28.671584  7.621663  160.190831  61.832588  174.178118  -4.384598  2.05308  9.955662  76.49715  -1.196318  -9.440433  6.920185  -8.173483  12.172151  55.855963  13.355853  32.654648  -5.788921  -33.347521  -100.57878  65.525028  7.678028  7.083161  17.801314  -0.800409  0.236142  13.351079  -0.594024  0.200633  
0.0  101.685394  0.0  -0.748976  -1.695013  -100.469502  8.466367  -22.192836  4.403891  3.582717  12.568576  30.6726  3.959674  4.472198  3.306867  -12.520691  11.612564  -3.608135  5.090273  2.596832  23.75417  -0.153469  1.899134  -1.021299  -4.160693  0.791014  3.002724  -11.260027  2.666226  8.047796  -11.260028  2.666226  8.047797  -22.583801  28.496694  7.559808  160.255348  61.848713  174.293475  -4.244676  1.769248  10.063058  76.605764  -1.212755  -9.215037  6.999718  -8.172638  12.081231  56.054643  13.415844  32.766906  -5.942963  -33.075999  -100.474259  65.703789  7.328017  7.144832  17.788053  -0.742735  0.181679  13.341074  -0.552316  0.158046  
0.0  101.685394  0.0  -0.683442  -1.871579  -100.52309  8.996096  -22.320193  4.508586  3.250891  12.672283  30.398925  3.908334  4.514564  3.362755  -11.890377  11.613054  -3.453504  4.75743  2.629454  23.82995  -0.218408  1.925842  -1.030077  -4.090831  0.807221  2.99867  -11.067635  2.701267  8.037317  -11.067634  2.701267  8.037316  -22.436583  28.335835  7.599636  160.981035  61.808077  174.811966  -3.814576  1.31724  10.374098  76.663935  -1.280039  -8.968154  7.074667  -8.225776  12.048848  56.330944  13.413281  32.921366  -6.14166  -32.763501  -100.434721  65.932637  6.928582  7.130212  17.783907  -0.73133  0.172781  13.337955  -0.544014  0.151028  
0.0  101.685394  0.0  -0.59189  -1.84567  -100.560739  9.294425  -22.360227  4.541091  3.050337  12.786682  30.287915  3.778948  4.502757  3.344958  -11.47434  11.660749  -3.302969  4.468791  2.685718  23.878746  -0.294302  1.93144  -1.029019  -4.055966  0.822458  2.980441  -10.971565  2.735548  7.98679  -10.971565  2.735548  7.98679  -22.245817  28.257984  7.692591  161.207283  61.865914  174.987722  -3.641743  0.865231  10.643366  76.740792  -1.372529  -8.678706  7.197304  -8.235779  12.055458  56.473502  13.48076  33.057726  -6.209841  -32.419255  -100.398218  66.252513  6.513375  7.078452  17.761192  -0.748816  0.180715  13.320928  -0.556916  0.157466  
0.0  101.685394  0.0  -0.588917  -1.769184  -100.632933  9.529568  -22.499834  4.605147  2.735606  12.934915  30.097624  3.669316  4.513756  3.345132  -10.918714  11.606152  -2.991142  4.144032  2.715674  23.911578  -0.493752  1.947089  -1.065121  -4.033963  0.827701  2.96188  -10.91176  2.744162  7.936375  -10.91176  2.744162  7.936376  -21.716707  28.35909  7.871367  161.482339  61.908854  175.19115  -3.211079  0.154097  11.129937  76.830745  -1.502968  -8.384987  7.223548  -8.234315  12.036947  56.599695  13.444068  33.195613  -6.288443  -31.781916  -100.270369  66.57514  6.058366  6.936692  17.733469  -0.781913  0.220717  13.30018  -0.580607  0.188425  
